<svg xmlns="http://www.w3.org/2000/svg" xmlns:xlink="http://www.w3.org/1999/xlink" viewBox="12742 -70 1920 765">
  <defs>
    <style>
      .cls-1 {
        clip-path: url(#clip-Web_1920_8);
      }

      .cls-2 {
        fill: url(#linear-gradient);
      }

      .cls-3 {
        fill: #f15f22;
      }

      .cls-4 {
        fill: url(#linear-gradient-2);
      }

      .cls-5 {
        fill: #fbb03b;
      }

      .cls-6 {
        fill: #fff;
      }
    </style>
    <linearGradient id="linear-gradient" x1="0.524" y1="1" x2="0.521" y2="0.018" gradientUnits="objectBoundingBox">
      <stop offset="0" stop-color="#fff" stop-opacity="0.071"/>
      <stop offset="0.3" stop-color="#adadad" stop-opacity="0.506"/>
      <stop offset="0.441" stop-color="#959595" stop-opacity="0.745"/>
      <stop offset="0.777" stop-color="#838383" stop-opacity="0.965"/>
      <stop offset="1" stop-color="gray"/>
    </linearGradient>
    <linearGradient id="linear-gradient-2" y1="0.5" x2="1" y2="0.5" gradientUnits="objectBoundingBox">
      <stop offset="0" stop-color="#f05f22"/>
      <stop offset="1" stop-color="#ffc10e"/>
    </linearGradient>
    <clipPath id="clip-Web_1920_8">
      <rect x="12742" y="-70" width="1920" height="765"/>
    </clipPath>
  </defs>
  <g id="Web_1920_8" data-name="Web 1920 – 8" class="cls-1">
    <rect class="cls-6" x="12742" y="-70" width="1920" height="765"/>
    <rect id="Rectangle_260" data-name="Rectangle 260" class="cls-2" width="2107" height="742" transform="translate(12659 -71)"/>
    <g id="Group_310" data-name="Group 310" transform="translate(12720.005 265)">
      <g id="Group_305" data-name="Group 305" transform="translate(-0.005 0)">
        <g id="Group_304" data-name="Group 304">
          <path id="Path_1592" data-name="Path 1592" class="cls-3" d="M.906,3.827c38.262,18.006,77.424,33.76,116.811,49.29,101.506,40.062,205.038,75.4,309.7,106.458,143.819,42.538,290.339,76.749,438.66,100.156,167.451,26.558,337.379,39.387,506.856,31.96,173.979-7.652,347.732-37.361,511.357-97.68,20.931-7.652,41.413-15.98,61.894-24.533,4.051-1.8.45-4.952-2.7-3.6-162.05,68.646-335.8,105.107-510.907,117.711-169.7,12.379-340.53,3.151-508.882-20.256-151.7-21.157-301.818-54.017-449.013-95.654q-164.413-46.589-324.1-107.583c-33.31-12.6-65.945-25.658-98.355-39.387C37.593,14.4,22.963,6.527,7.659,1.126a13.364,13.364,0,0,0-1.8-.9C3.607-.9-2.245,2.476.906,3.827Z" transform="translate(0.005 0)"/>
        </g>
      </g>
      <g id="Group_307" data-name="Group 307" transform="translate(22.931 126.887)">
        <g id="Group_306" data-name="Group 306">
          <path id="Path_1593" data-name="Path 1593" class="cls-4" d="M10.668,236.713c63.244-37.049,135.042-66.616,205.938-92.8,160.7-59.135,335.128-97.431,512.708-103.665,108.258-3.74,216.967,4.631,321.849,26.183,58.518,11.934,114.785,28.5,170.378,47.379q85.414,28.855,171.953,56.285c137.067,43.283,277.285,85.675,421.555,111.68,28.359,5.165,57.168,9.618,86.2,11.578,6.752.534,13.729.712,20.481.712,2.026,0,7.427.534,9-.534a2.057,2.057,0,0,1,1.125-.178c.45,0-.45-4.453,0-4.453-6.077,1.069-13.054.712-19.131.534-23.857-.712-47.49-3.919-70.9-7.659-128.965-20.305-254.328-57-376.541-94.047-52.891-16.031-105.332-32.774-157.774-49.873-58.518-19.237-116.136-40.433-176-56.82C1025.956,52.182,915,36.864,803.587,35.083,618.58,32.055,434.7,65.541,264.772,122.539,177.895,151.751,90.568,186.306,14.044,230.3c-1.125.712-2.476,1.425-3.6,2.137-.9.356.9,3.74.225,4.275Z" transform="translate(-10.185 -34.894)"/>
        </g>
      </g>
      <g id="Group_309" data-name="Group 309" transform="translate(20.015 9.501)">
        <g id="Group_308" data-name="Group 308">
          <path id="Path_1594" data-name="Path 1594" class="cls-5" d="M9.588,243.2c41.188,22.957,87.327,38.937,132.116,52.666,116.136,36.011,237.9,52.666,359.436,52.666,179.38,0,357.41-36.911,524.636-101.506A1691.244,1691.244,0,0,0,1180.4,178.377c44.789-22.507,89.352-45.014,136.167-63.47,87.777-34.211,179.38-58.518,272.109-75.4C1699.633,19.253,1813.743,7.1,1926.953,8.45h5.4c2.7,0,6.977-3.826,2.476-3.826-92.278-2.476-185.907,6.752-277.06,19.806-86.652,12.6-172.4,30.834-256.129,56.943a1280.927,1280.927,0,0,0-131.666,48.84c-48.615,21.382-94.979,47.49-143.369,69.771C951.053,281.459,761.319,333.45,567.535,342.9c-129.865,6.3-261.305-6.527-386.894-40.963-38.262-10.578-76.3-22.957-112.985-38.037-17.105-6.977-33.535-15.98-50.641-23.182A9.124,9.124,0,0,1,14.99,239.6c-2.251-.675-8.1,2.026-5.4,3.6Z" transform="translate(-8.89 -4.221)"/>
        </g>
      </g>
    </g>
  </g>
</svg>
