<svg xmlns="http://www.w3.org/2000/svg" xmlns:xlink="http://www.w3.org/1999/xlink" viewBox="8723 -3253 1920 644">
  <defs>
    <style>
      .cls-1 {
        clip-path: url(#clip-Web_1920_22);
      }

      .cls-2 {
        opacity: 0.402;
      }

      .cls-3 {
        opacity: 0.75;
      }

      .cls-4, .cls-5, .cls-7 {
        fill: none;
        stroke-miterlimit: 10;
      }

      .cls-4 {
        stroke: #ddd;
      }

      .cls-4, .cls-5 {
        stroke-width: 2px;
      }

      .cls-5 {
        stroke: #fff;
      }

      .cls-6 {
        fill: #f5b344;
      }

      .cls-7 {
        stroke: #ed1c24;
        stroke-width: 1.5px;
      }

      .cls-8 {
        fill: #f15f22;
      }

      .cls-9 {
        fill: #fff;
      }
    </style>
    <clipPath id="clip-Web_1920_22">
      <rect x="8723" y="-3253" width="1920" height="644"/>
    </clipPath>
  </defs>
  <g id="Web_1920_22" data-name="Web 1920 – 22" class="cls-1">
    <rect class="cls-9" x="8723" y="-3253" width="1920" height="644"/>
    <g id="Group_269" data-name="Group 269" class="cls-2" transform="translate(8703 -3043)">
      <g id="Group_21" data-name="Group 21" transform="translate(1657.042 110.4)">
        <g id="Group_19" data-name="Group 19" class="cls-3">
          <path id="Path_45" data-name="Path 45" class="cls-4" d="M1003.5,110.4" transform="translate(-1003.5 -110.4)"/>
        </g>
        <g id="Group_20" data-name="Group 20" transform="translate(0 2)">
          <path id="Path_46" data-name="Path 46" class="cls-5" d="M1003.5,112.4" transform="translate(-1003.5 -112.4)"/>
        </g>
      </g>
    </g>
    <g id="Group_1547" data-name="Group 1547" transform="translate(10127.445 -1424.553) rotate(-90)">
      <g id="Group_1544" data-name="Group 1544" transform="translate(0.742 177.587)">
        <g id="Group_1543" data-name="Group 1543">
          <path id="Path_1440" data-name="Path 1440" class="cls-6" d="M.3,165.272c21.27,34.626,60.6,60.843,95.469,79.145,107.094,55.9,235.458,57.875,352.444,40.562,92.254-13.6,182.776-39.325,270.331-70.984,61.832-22.507,122.428-48.229,181.787-76.177,54.412-25.722,107.836-47.487,167.689-56.391C1263.659,52,1455.339,129.162,1631.932,203.856c82.361,34.873,164.474,71.726,250.3,97.448,69.5,20.776,144.935,35.368,216.661,18.055a322.157,322.157,0,0,0,34.379-9.893c-3.463,1.237-7.173,1.731-10.635,2.968-69.747,24.486-150.129,9.151-218.887-10.635-83.35-23.991-163.237-59.112-243.125-93-172.141-73.457-355.66-151.118-546.351-134.795-39.573,3.463-78.651,11.377-116.74,22.507-54.165,15.829-103.878,42.541-155.076,65.542C730.911,211.77,614.914,254.064,494.464,276.076c-120.7,22.012-253.76,26.217-368.026-25.228-29.68-13.356-58.122-30.669-82.608-52.434A223.434,223.434,0,0,1,22.312,176.65c-2.968-3.463-6.183-9.893-9.893-12.614-.495-.247-.742-1.237-1.237-1.731-.742-.989-10.388,3.71-10.882,2.968Z" transform="translate(-0.3 -71.812)"/>
        </g>
      </g>
      <path id="Path_1441" data-name="Path 1441" class="cls-7" d="M5.2,270.269s77.414,126.88,451.871-125.4,643.056,25.475,791.454,95.222S1644.252,466.4,2025.14,197.059" transform="translate(7.661 60.384)"/>
      <g id="Group_1546" data-name="Group 1546" transform="translate(0 0.018)">
        <g id="Group_1545" data-name="Group 1545">
          <path id="Path_1442" data-name="Path 1442" class="cls-8" d="M12.366,378.388c36.357-48.971,87.8-89.781,139.246-121.686,51.2-31.411,107.341-54.66,166.205-66.779,80.382-16.571,162-10.141,240.652,12.614,46.745,13.6,91.759,32.647,134.547,55.4,51.2,27.206,96.953,62.08,146.666,91.265,81.124,47.487,169.421,74.693,263.406,73.7,181.292-1.731,333.895-116.739,474.625-218.145,44.272-31.906,88.544-64.306,133.311-95.716,34.626-24.238,69.747-47.982,107.094-67.521C1848.54,25.7,1880.693,12.835,1914.33,6.4c40.067-7.915,80.382-5.936,120.7-.247,22.507,3.215,45.014,7.915,67.274,12.861,3.957.989,8.409-.989,12.366,0-70.736-16.076-146.172-26.959-217.9-11.624-78.4,16.571-146.419,65.048-210.725,110.556-84.587,59.854-166.947,123.417-253.76,180.056-76.177,49.713-158.291,94.727-247.824,114.514-49.713,10.882-100.168,13.356-150.624,5.194-51.692-8.409-101.652-26.217-148.15-49.961-54.165-27.7-101.9-65.295-154.334-95.469-44.519-25.475-91.512-47.487-140.236-63.316-133.805-44.025-281.461-39.325-408.094,23.5a561.516,561.516,0,0,0-125.4,85.329A497.422,497.422,0,0,0,21.27,353.655c-6.183,6.678-14.345,13.85-18.8,21.765C1.731,376.409.742,377.4,0,378.388c1.484-1.979,10.882,1.979,12.366,0Z" transform="translate(0 -0.018)"/>
        </g>
      </g>
    </g>
  </g>
</svg>
