<svg id="Layer_1" data-name="Layer 1" xmlns="http://www.w3.org/2000/svg" xmlns:xlink="http://www.w3.org/1999/xlink" viewBox="0 0 1918 378"><defs><style>.cls-1,.cls-4{fill:none;}.cls-2{clip-path:url(#clip-path);}.cls-3{fill:#f7931e;}.cls-4{stroke-miterlimit:10;stroke-width:2px;stroke:url(#NKF_1);}.cls-5{fill:#f15f22;}</style><clipPath id="clip-path"><rect class="cls-1" x="8" width="1910" height="378"/></clipPath><linearGradient id="NKF_1" x1="-153.53" y1="166.32" x2="1923.91" y2="166.32" gradientTransform="matrix(0.93, -0.07, -0.1, 0.49, 157.32, 163.1)" gradientUnits="userSpaceOnUse"><stop offset="0" stop-color="#f05f22"/><stop offset="1" stop-color="#ffc10e"/></linearGradient></defs><title>hero 1</title><g class="cls-2"><path class="cls-3" d="M1874.2-53.45c17.15.57,22.09,14.53,17.77,29.46-8.3,28.71-33.7,52.82-55.36,71.86-43.59,38.32-94.72,68-146.62,93.44-85.11,41.75-175.62,72.7-267.08,97.15-93.6,25-189.78,46-286.27,56.13-49.32,5.16-98.89,6.56-148.44,5.33-48.48-1.2-96.87-4.55-145.29-7-58.15-3-116.34-4.5-174.57-3.43-79,1.46-157.82,7.31-236.3,16.12-109.75,12.33-218.83,30.22-327.27,51q-49.57,9.51-99,19.82c-3.53.73-8.4,2.45-11.17,3,121-25.15,242.65-47.33,365.19-63.35,85.65-11.2,171.76-19.32,258.1-22.44,62.18-2.24,124.39-1.65,186.55,1.08,50.17,2.21,100.28,5.78,150.47,7.63,49.78,1.84,99.61,1.52,149.27-2.68,85.76-7.25,170.83-24.9,254.41-44.81,94.1-22.41,187.43-49.77,276.86-86.86,63.3-26.25,125.62-57.27,181-97.89,30.07-22,61.77-48.12,80.17-81.28,6.49-11.68,16.06-34.93-.56-43.13a24.88,24.88,0,0,0-10.3-2.25c-3.85-.13-7.8,3.23-11.6,3.1Z"/><path class="cls-4" d="M-14,318s167.15,125.74,525-9c247-93,774.09,1.3,922-25,135-24,259.71-190.8,529-329"/><path class="cls-5" d="M-45,422.43c11.81-10,25-18.55,38.13-26.75,35.24-22.1,72.82-40.45,111.44-55.81C250,282,409.79,268.05,564.44,287.65a1244.35,1244.35,0,0,1,153.81,29.68c49.83,12.83,99.55,23.81,150.73,29.82,89.48,10.5,180.78,9.63,270.21-.84,90.53-10.59,180.3-31.17,265.74-63.1,67.8-25.34,135.64-57.79,191.37-104.69,53.67-45.18,105.1-94.85,172.56-118.81C1830.49,37.82,1898.15,40,1962.61,38.9c21.24-.36,42.48-.78,63.71-1.39-2.39.07-6.61-.11-9.64,0-42.22,1.2-84.46,1.33-126.67,2.7-29.73,1-59.62,2.6-88.9,8.18-64,12.19-117.67,47.55-167.08,88.61-28.07,23.34-54.08,48.59-84.42,69.07s-62.71,37.74-95.95,52.9c-79.93,36.44-165.29,61-251.63,76.56C1093.25,355.09,981.75,360,872,346.3c-51.38-6.39-101-18.26-151.13-30.86a1236.92,1236.92,0,0,0-154.75-28.82c-144.64-17.24-294.36-8-432.86,39C88.36,340.84,44.66,359.9,3.52,383.44c-12.69,7.26-25.14,14.95-37.21,23.2-6.17,4.22-13.93,8.49-19.12,14A24.8,24.8,0,0,1-55,422.43c1.9-1.61,8,1.67,10,0Z"/></g></svg>