<svg xmlns="http://www.w3.org/2000/svg" xmlns:xlink="http://www.w3.org/1999/xlink" viewBox="12742 -70 1920 319">
  <defs>
    <style>
      .cls-1 {
        clip-path: url(#clip-Web_1920_8);
      }

      .cls-2 {
        fill: #f15f22;
      }

      .cls-3 {
        fill: url(#linear-gradient);
      }

      .cls-4 {
        fill: #fbb03b;
      }

      .cls-5 {
        fill: #fff;
      }
    </style>
    <linearGradient id="linear-gradient" y1="0.5" x2="1" y2="0.5" gradientUnits="objectBoundingBox">
      <stop offset="0" stop-color="#f05f22"/>
      <stop offset="1" stop-color="#ffc10e"/>
    </linearGradient>
    <clipPath id="clip-Web_1920_8">
      <rect x="12742" y="-70" width="1920" height="319"/>
    </clipPath>
  </defs>
  <g id="Web_1920_8" data-name="Web 1920 – 8" class="cls-1">
    <rect class="cls-5" x="12742" y="-70" width="1920" height="319"/>
    <g id="Group_310" data-name="Group 310" transform="translate(12720.005 -127.562)">
      <g id="Group_305" data-name="Group 305" transform="translate(7.995 99.11)">
        <g id="Group_304" data-name="Group 304" transform="translate(0 0)">
          <path id="Path_1592" data-name="Path 1592" class="cls-2" d="M.906,2.6C39.168,14.814,78.33,25.5,117.717,36.043,219.224,63.227,322.755,87.2,427.413,108.28c143.819,28.864,290.339,52.078,438.66,67.961,167.451,18.021,337.379,26.726,506.856,21.686,173.979-5.193,347.732-25.352,511.357-66.281,20.931-5.193,41.413-10.843,61.894-16.647,4.051-1.222.45-3.36-2.7-2.444-162.05,46.58-335.8,71.321-510.907,79.873-169.7,8.4-340.53,2.138-508.882-13.745-151.7-14.356-301.818-36.653-449.013-64.907-109.609-21.076-217.867-45.358-324.1-73-33.31-8.552-65.945-17.41-98.355-26.726C37.593,9.774,22.963,4.429,7.659.764a16.561,16.561,0,0,0-1.8-.611C3.607-.611-2.245,1.68.906,2.6Z" transform="translate(0.005 0)"/>
        </g>
      </g>
      <g id="Group_307" data-name="Group 307" transform="translate(21.931 136.674)">
        <g id="Group_306" data-name="Group 306">
          <path id="Path_1593" data-name="Path 1593" class="cls-3" d="M10.668,184.784c63.244-27.516,135.042-49.476,205.938-68.922,160.7-43.92,335.128-72.361,512.708-76.992,108.258-2.778,216.967,3.439,321.849,19.446,58.518,8.863,114.785,21.166,170.378,35.189q85.414,21.431,171.953,41.8c137.067,32.146,277.285,63.63,421.555,82.945,28.359,3.836,57.168,7.144,86.2,8.6,6.752.4,13.729.529,20.481.529,2.026,0,7.427.4,9-.4a2.694,2.694,0,0,1,1.125-.132c.45,0-.45-3.307,0-3.307-6.077.794-13.054.529-19.131.4-23.857-.529-47.49-2.91-70.9-5.688-128.965-15.081-254.328-42.332-376.541-69.848-52.891-11.906-105.332-24.341-157.774-37.041-58.518-14.287-116.136-30.029-176-42.2C1025.956,47.734,915,36.357,803.587,35.034,618.58,32.785,434.7,57.656,264.772,99.988c-86.877,21.7-174.2,47.359-250.727,80.034-1.125.529-2.476,1.058-3.6,1.587-.9.265.9,2.778.225,3.175Z" transform="translate(-10.185 -34.894)"/>
        </g>
      </g>
      <g id="Group_309" data-name="Group 309" transform="translate(20.015 89.875)">
        <g id="Group_308" data-name="Group 308" transform="translate(0 0)">
          <path id="Path_1594" data-name="Path 1594" class="cls-4" d="M9.588,148.99c41.188,13.907,87.327,23.588,132.116,31.9,116.136,21.815,237.9,31.9,359.436,31.9,179.38,0,357.41-22.36,524.636-61.491q79-18.407,154.623-41.585c44.789-13.634,89.352-27.269,136.167-38.449,87.777-20.724,179.38-35.45,272.109-45.675,110.959-12.271,225.069-19.634,338.279-18.816h5.4c2.7,0,6.977-2.318,2.476-2.318-92.278-1.5-185.907,4.09-277.06,12-86.652,7.635-172.4,18.679-256.129,34.5-44.789,8.453-88.9,18.27-131.666,29.587C1221.361,93.5,1175,109.314,1126.607,122.812c-175.554,49.357-365.287,80.852-559.072,86.579-129.865,3.818-261.305-3.954-386.894-24.815-38.262-6.408-76.3-13.907-112.985-23.042-17.105-4.227-33.535-9.68-50.641-14.043a11.806,11.806,0,0,1-2.026-.682c-2.251-.409-8.1,1.227-5.4,2.182Z" transform="translate(-8.89 -4.221)"/>
        </g>
      </g>
    </g>
  </g>
</svg>
