<svg xmlns="http://www.w3.org/2000/svg" xmlns:xlink="http://www.w3.org/1999/xlink" version="1.1" x="0px" y="0px" viewBox="0 0 100 100" style="enable-background:new 0 0 100 100;" xml:space="preserve"><g><path d="M72.1,80.2c16.7-12.7,19.9-36.6,7.1-53.3C66.5,10.3,42.6,7.1,25.9,19.8S6.1,56.4,18.8,73.1C31.5,89.7,55.4,92.9,72.1,80.2z    M79.2,57.2c0.1-0.5,0.7-0.9,1.2-0.7c0.5,0.1,0.9,0.7,0.7,1.2c-1.8,7.4-6,14-12.1,18.6c-3.3,2.5-7,4.4-11,5.5c-0.1,0-0.2,0-0.3,0   c-0.4,0-0.8-0.3-1-0.7c-0.2-0.5,0.2-1.1,0.7-1.2c3.7-1.1,7.2-2.8,10.3-5.2C73.5,70.3,77.5,64.1,79.2,57.2z M73.6,54.7   c0.5,0.1,0.9,0.7,0.7,1.2c-1.4,5.8-4.8,11.1-9.5,14.7c-2.6,2-5.4,3.4-8.5,4.3c-0.1,0-0.2,0-0.3,0c-0.4,0-0.8-0.3-1-0.7   c-0.2-0.5,0.2-1.1,0.7-1.2c2.9-0.8,5.5-2.2,7.9-4c4.4-3.4,7.5-8.2,8.8-13.6C72.5,55,73,54.6,73.6,54.7z M65.6,53.8   c0.1-0.5,0.7-0.9,1.2-0.8c0.5,0.1,0.9,0.7,0.8,1.2c-1,4.3-3.5,8.2-7,10.8c-1.8,1.4-3.9,2.4-6.1,3.1c-0.1,0-0.2,0-0.3,0   c-0.4,0-0.8-0.3-1-0.7c-0.2-0.5,0.1-1.1,0.7-1.2c2-0.6,3.8-1.5,5.5-2.8C62.5,61.1,64.7,57.7,65.6,53.8z M56.9,43.9   c3.4,4.4,2.5,10.7-1.9,14c-4.4,3.4-10.7,2.5-14-1.9s-2.5-10.7,1.9-14C47.3,38.7,53.6,39.5,56.9,43.9z M44.8,32.5   c0.2,0.5-0.1,1.1-0.7,1.2c-2,0.6-3.8,1.5-5.4,2.8c-2.8,2.2-4.9,5.1-5.9,8.6c-0.1,0.4-0.5,0.7-1,0.7c-0.1,0-0.2,0-0.3,0   c-0.5-0.2-0.8-0.7-0.7-1.2c1.2-3.9,3.5-7.2,6.6-9.6c1.8-1.4,3.8-2.4,6.1-3.1C44.1,31.7,44.6,32,44.8,32.5z M42.6,25.8   c0.2,0.5-0.1,1.1-0.7,1.2c-2.7,0.8-5.2,2.1-7.5,3.9c-4.1,3.2-7.1,7.5-8.5,12.5c-0.1,0.4-0.5,0.7-1,0.7c-0.1,0-0.2,0-0.3,0   c-0.5-0.2-0.8-0.7-0.7-1.2c1.5-5.4,4.7-10.1,9.2-13.5c2.5-1.9,5.2-3.3,8.1-4.2C41.9,25,42.4,25.3,42.6,25.8z M18.2,42.5   c-0.1,0-0.2,0-0.3,0c-0.5-0.1-0.8-0.7-0.7-1.2c1.9-7,6-13,11.8-17.4c3.1-2.4,6.5-4.1,10.2-5.3c0.5-0.2,1.1,0.1,1.3,0.7   c0.2,0.5-0.1,1.1-0.7,1.3c-3.5,1.1-6.7,2.8-9.6,5c-5.4,4.1-9.2,9.8-11.1,16.4C19,42.2,18.6,42.5,18.2,42.5z"></path></g></svg>
