<svg xmlns="http://www.w3.org/2000/svg" data-name="Your Icon" viewBox="0 0 100 100" x="0px" y="0px"><defs><style>.cls-1{stroke-linecap:round;stroke-miterlimit:10;stroke-width:4px;}</style></defs><title>Звезда</title><path d="M49.69,21.21c.17-.52.45-.52.62,0l6.06,18.65a1.47,1.47,0,0,0,1.31,1H77.29c.55,0,.64.26.19.59L61.61,52.92a1.47,1.47,0,0,0-.5,1.54l6.06,18.65c.17.52-.06.69-.5.36L50.81,61.95a1.47,1.47,0,0,0-1.62,0L33.32,73.48c-.44.32-.67.16-.5-.36l6.06-18.65a1.47,1.47,0,0,0-.5-1.54L22.52,41.4c-.44-.32-.36-.59.19-.59H42.32a1.47,1.47,0,0,0,1.31-1Z"></path><path class="cls-1" d="M49.69,21.21c.17-.52.45-.52.62,0l6.06,18.65a1.47,1.47,0,0,0,1.31,1H77.29c.55,0,.64.26.19.59L61.61,52.92a1.47,1.47,0,0,0-.5,1.54l6.06,18.65c.17.52-.06.69-.5.36L50.81,61.95a1.47,1.47,0,0,0-1.62,0L33.32,73.48c-.44.32-.67.16-.5-.36l6.06-18.65a1.47,1.47,0,0,0-.5-1.54L22.52,41.4c-.44-.32-.36-.59.19-.59H42.32a1.47,1.47,0,0,0,1.31-1Z"></path></svg>
