<svg xmlns="http://www.w3.org/2000/svg" xmlns:xlink="http://www.w3.org/1999/xlink" version="1.1" x="0px" y="0px" viewBox="0 0 100 100" style="enable-background:new 0 0 100 100;" xml:space="preserve"><g><path d="M89,26.8c0-7.7-6.3-14-14-14H45c-7.7,0-14,6.3-14,14v33.9c-1.8-0.9-3.9-1.4-6-1.4c-7.7,0-14,6.3-14,14s6.3,14,14,14   c7.4,0,13.4-5.7,13.9-13c0-0.2,0.1-0.3,0.1-0.5v-33h42v8.9c-1.8-0.9-3.9-1.4-6-1.4c-7.7,0-14,6.3-14,14s6.3,14,14,14s14-6.3,14-14   c0-0.1,0-0.2,0-0.3c0-0.1,0-0.1,0-0.2V26.8z M25,79.2c-3.3,0-6-2.7-6-6s2.7-6,6-6s6,2.7,6,6S28.3,79.2,25,79.2z M39,32.8v-6   c0-3.3,2.7-6,6-6h30c3.3,0,6,2.7,6,6v6H39z M75,68.2c-3.3,0-6-2.7-6-6s2.7-6,6-6s6,2.7,6,6S78.3,68.2,75,68.2z"></path></g></svg>
