<svg xmlns="http://www.w3.org/2000/svg" xmlns:xlink="http://www.w3.org/1999/xlink" version="1.1" x="0px" y="0px" viewBox="0 0 29.979 29.331" style="enable-background:new 0 0 29.979 29.331;" xml:space="preserve"><g><path d="M17.73,5.269c-1.084,0-1.963,0.456-1.963,1.018c0,0.563,0.879,1.021,1.963,1.021c1.086,0,1.969-0.457,1.969-1.021   C19.699,5.725,18.816,5.269,17.73,5.269z"></path><path d="M0.025,18.972V18.95C-0.006,18.964-0.01,18.972,0.025,18.972z"></path><path d="M29.143,3.165L13.225,0.094c-1.572-0.382-2.258,0.492-2.549,0.956L1.647,14.6c-0.405,0.608-0.621,1.324-0.618,2.056   l0.036,11.456c0.005,0.403,0.207,0.779,0.54,1.005c0.334,0.228,0.757,0.277,1.134,0.134l26.117-9.921   c0.666-0.253,1.107-0.891,1.107-1.604l0.016-12.994C29.977,4.183,30.033,3.349,29.143,3.165z M7.525,25.972   c-0.828,0-1.5-1.119-1.5-2.5s0.672-2.5,1.5-2.5s1.5,1.119,1.5,2.5S8.353,25.972,7.525,25.972z M10.025,16.972   c-0.553,0-1-0.672-1-1.5s0.447-1.5,1-1.5s1,0.672,1,1.5S10.578,16.972,10.025,16.972z M11.525,23.972c-0.276,0-0.5-0.672-0.5-1.5   s0.224-1.5,0.5-1.5s0.5,0.672,0.5,1.5S11.801,23.972,11.525,23.972z M16.525,20.972c-1.381,0-2.5-1.791-2.5-4s1.119-4,2.5-4   c1.381,0,2.5,1.791,2.5,4S17.906,20.972,16.525,20.972z M22.025,12.972c-0.553,0-1-0.896-1-2s0.447-2,1-2s1,0.896,1,2   S22.578,12.972,22.025,12.972z M23.615,6.36l-7.671,3.092c-0.509,0.205-1.262,0.077-1.676-0.283c0,0-0.538-0.471-1.819-0.471   c-1.447,0-2.62,0.618-2.62,1.382c0,0.548,0.579,0.818,0.579,0.818c0.498,0.231,0.488,0.59-0.021,0.795l-4.914,1.98   c-0.508,0.205-0.689-0.009-0.401-0.476l6.7-10.861c0.396-0.716,1.056-0.814,1.6-0.619l0.796,0.209   c-0.048,0.081-0.076,0.169-0.076,0.261c0,0.403,0.521,0.729,1.164,0.729c0.565,0,1.038-0.252,1.143-0.587l10.863,1.961   c0.535,0.114,0.666,0.333,0.285,0.485c-0.377,0.152-1.146-0.369-2.5,0.213C23.76,5.558,24.125,6.155,23.615,6.36z M26.025,18.972   c-0.553,0-1-1.119-1-2.5s0.447-2.5,1-2.5s1,1.119,1,2.5S26.578,18.972,26.025,18.972z M27.025,10.972c-0.553,0-1-0.672-1-1.5   s0.447-1.5,1-1.5s1,0.672,1,1.5S27.578,10.972,27.025,10.972z"></path></g></svg>
