<svg xmlns="http://www.w3.org/2000/svg" xmlns:xlink="http://www.w3.org/1999/xlink" version="1.1" x="0px" y="0px" viewBox="0 0 100 100" enable-background="new 0 0 100 100" xml:space="preserve"><g><path  d="M94.2,22.7c-1.1-1-2.8-0.9-3.8,0.1L76,37.1c-1,1-2.7,1-3.6-0.1c-1-1-0.9-2.6,0.1-3.6l14.3-14.3   c1.1-1.1,1.1-2.8-0.1-3.9c-1.1-1-2.8-0.9-3.8,0.1L68.6,29.7c-1,1-2.7,1-3.6-0.1c-1-1-0.9-2.6,0.1-3.6l14.3-14.3   c1.1-1.1,1.1-2.8-0.1-3.9c-1.1-1-2.8-0.9-3.8,0.1L61.3,22.2c-0.6,0.6-6.3,6.3-6.5,14.8c0,0.2,0,0.4,0,0.7   c-0.3,4.4-2.2,8.5-5.3,11.5l3.5,3.5c3.1-3.1,7.1-5.1,11.5-5.3c0.2,0,0.4,0,0.7,0c8.5-0.2,14.2-5.9,14.8-6.5l14.3-14.3   C95.3,25.5,95.3,23.7,94.2,22.7z"></path><path d="M40.6,59.9c-1.1,0-2.1-0.1-3.1-0.3C26.5,69,11.3,82,11.1,82.2c-2.4,2.4-2.4,6.4,0,8.8s6.4,2.4,8.8,0   c0.2-0.2,14.8-17.2,24.2-28.2c-0.5-0.6-0.9-1.2-1.4-1.8C42.2,60.3,41.4,59.9,40.6,59.9z"></path><path  d="M79,82.4L79,82.4L9.6,13c0,0,0,0,0,0c-0.5-0.5-1.2-0.7-1.8-0.7c-1.5,0-2.9,1.3-2.7,3   c0.5,4.6,13.7,41.5,35.6,42.1c1.6,0,3.1,0.8,4.2,2.1c6,7.4,25.3,31.4,25.6,31.6c1.2,1.2,2.8,1.8,4.4,1.8c1.5,0,3-0.6,4.2-1.7   c0,0,0,0,0,0c0,0,0-0.1,0.1-0.1c0,0,0.1,0,0.1-0.1c0,0,0,0,0,0C81.4,88.6,81.3,84.7,79,82.4L79,82.4z"></path></g></svg>
