<svg xmlns="http://www.w3.org/2000/svg" viewBox="3272 2006 1180 400">
  <defs>
    <linearGradient id="a" x1=".285" y1=".554" x2="1.35" y2=".517" gradientUnits="objectBoundingBox">
      <stop offset="0" stop-color="#fff"/>
      <stop offset=".724" stop-color="#fff" stop-opacity=".027"/>
      <stop offset="1" stop-color="#fff" stop-opacity="0"/>
    </linearGradient>
  </defs>
  <path transform="translate(3759 2006)" fill="url(#a)" d="M0 0h259v400H0z"/>
  <path data-name="Path 1" d="M3880.154 1406.601c-20.188 12.4-35.472 35.328-46.143 55.66-32.588 62.437-33.742 137.275-23.648 205.48 7.931 53.785 22.927 106.561 41.384 157.607 13.122 36.049 28.118 71.377 44.413 105.985 15 31.723 27.686 62.87 32.877 97.765 17.159 114.06-27.83 225.812-71.377 328.768-20.332 48.017-41.817 95.891-56.813 145.927-12.112 40.519-20.62 84.5-10.526 126.316a187.819 187.819 0 0 0 5.768 20.043c-.721-2.019-1.009-4.182-1.73-6.2-14.275-40.664-5.335-87.527 6.2-127.614 13.987-48.594 34.463-95.17 54.218-141.745 42.826-100.361 88.1-207.355 78.587-318.53a352.593 352.593 0 0 0-13.124-68.062c-9.229-31.579-24.8-60.563-38.212-90.411-28.984-65.032-53.641-132.66-66.474-202.889-12.833-70.368-15.285-147.946 14.708-214.565 7.787-17.3 17.88-33.886 30.57-48.162a130.27 130.27 0 0 1 12.689-12.545c2.019-1.73 5.768-3.6 7.354-5.768.144-.288.721-.433 1.009-.721.576-.427-2.163-6.051-1.73-6.339z" fill="#f6861f"/>
  <path d="M3845.402 1413.666s-73.973 45.134 73.108 263.447-14.852 374.911-55.516 461.429-131.94 230.715 25.09 452.777" fill="none" stroke="#fbb94a" stroke-miterlimit="10" stroke-width="1.5"/>
  <path d="M3817.572 1413.378c28.551 21.2 52.343 51.19 70.945 81.183 18.313 29.849 31.867 62.581 38.933 96.9 9.661 46.864 5.912 94.449-7.354 140.3a413.843 413.843 0 0 1-32.3 78.443c-15.862 29.849-36.193 56.525-53.209 85.509-27.686 47.3-43.547 98.775-42.971 153.569 1.009 105.7 68.061 194.665 127.181 276.713 18.6 25.811 37.491 51.622 55.8 77.722 14.131 20.188 27.974 40.663 39.366 62.437 9.229 17.736 16.727 36.482 20.476 56.093 4.614 23.36 3.461 46.864.144 70.368-1.875 13.122-4.614 26.244-7.5 39.221-.577 2.307.577 4.9 0 7.21 9.373-41.24 15.717-85.22 6.777-127.037-9.661-45.71-37.924-85.364-64.456-122.856-34.9-49.315-71.954-97.333-104.975-147.946-28.984-44.412-55.227-92.286-66.763-144.485-6.345-28.984-7.787-58.4-3.028-87.816 4.9-30.137 15.285-59.265 29.128-86.374 16.15-31.579 38.068-59.409 55.66-89.979 14.852-25.955 27.686-53.353 36.914-81.759 25.667-78.01 22.927-164.1-13.7-237.924a327.373 327.373 0 0 0-49.74-73.102 290 290 0 0 0-20.909-21.2c-3.893-3.6-8.075-8.363-12.689-10.959-.577-.433-1.154-1.009-1.73-1.442 1.154.865-1.154 6.345 0 7.21z" fill="#f15f22"/>
</svg>
